Coordinates
version=1
nRows=8
nColumns=63
inDegrees=yes

Units are S.I. units (second, meters, Newtons, ...)
If the header above contains a line with 'inDegrees', this indicates whether rotational values are in degrees (yes) or radians (no).

endheader
time	pelvis_tilt	pelvis_list	pelvis_rotation	pelvis_tx	pelvis_ty	pelvis_tz	hip_flexion_r	hip_adduction_r	hip_rotation_r	knee_angle_r	knee_angle_r_beta	ankle_angle_r	subtalar_angle_r	mtp_angle_r	hip_flexion_l	hip_adduction_l	hip_rotation_l	knee_angle_l	knee_angle_l_beta	ankle_angle_l	subtalar_angle_l	mtp_angle_l	L5_S1_Flex_Ext	L5_S1_Lat_Bending	L5_S1_axial_rotation	L4_L5_Flex_Ext	L4_L5_Lat_Bending	L4_L5_axial_rotation	L3_L4_Flex_Ext	L3_L4_Lat_Bending	L3_L4_axial_rotation	L2_L3_Flex_Ext	L2_L3_Lat_Bending	L2_L3_axial_rotation	L1_L2_Flex_Ext	L1_L2_Lat_Bending	L1_L2_axial_rotation	L1_T12_Flex_Ext	L1_T12_Lat_Bending	L1_T12_axial_rotation	Abs_r3	Abs_r2	Abs_r1	Abs_t1	Abs_t2	neck_flexion	neck_bending	neck_rotation	arm_flex_r	arm_add_r	arm_rot_r	elbow_flex_r	pro_sup_r	wrist_flex_r	wrist_dev_r	arm_flex_l	arm_add_l	arm_rot_l	elbow_flex_l	pro_sup_l	wrist_flex_l	wrist_dev_l
     14.03333333	      4.17161949	      7.56658350	   -176.09597003	      0.49863348	      0.87769525	      1.00365811	     25.87830085	      6.33343518	    -16.37951437	     23.60457301	      0.41197752	   -349.19145384	     -3.56365876	      0.00000000	      6.41211950	    -11.80908883	     -2.14218174	     60.42142108	      1.05455274	      4.47466392	    -18.88031477	      0.00000000	     -0.00021061	      0.91663432	     -1.07451949	     -0.00039113	      1.21912364	     -1.14167696	     -0.00034602	      2.22870468	     -1.14167696	     -0.00024071	      2.22870468	     -0.94020456	     -0.00019558	      1.86920070	     -0.87304709	     -0.00012035	      1.41986656	     -0.80588962	     -0.00150440	     10.36915074	     -5.97615506	      0.00000000	      0.00000000	      0.00000000	      0.00000000	      0.00000000	    -13.46679716	    -13.38935860	     14.83413190	     20.74270879	     52.07335677	      0.00000000	      5.00000014	     15.83069783	    -10.51097216	    143.90294107	      0.41435525	      5.15294172	      0.00000000	      5.00000014
     14.06666667	      3.75903432	      6.73039309	   -177.20825694	      0.45819287	      0.88294310	      1.00060696	     22.35924370	      5.95580694	    -17.71442699	     24.05957154	      0.41991874	   -346.21424623	      0.76778727	      0.00000000	     11.06334540	    -11.19525510	     -1.27835139	     67.42949131	      1.17686664	      1.55429621	    -19.04743435	      0.00000000	     -0.00227872	      0.81563618	     -0.66023809	     -0.00423181	      1.08479612	     -0.70150298	     -0.00374371	      1.98313781	     -0.70150298	     -0.00260435	      1.98313781	     -0.57770833	     -0.00211602	      1.66324530	     -0.53644345	     -0.00130206	      1.26342045	     -0.49517857	     -0.01627665	      9.22663962	     -3.67204621	      0.00000000	      0.00000000	      0.00000000	      0.00000000	      0.00000000	    -11.88644487	    -12.57904061	     10.76761559	     20.04588352	     50.55199199	      0.00000000	      5.00000014	     13.63782853	    -10.69986022	    138.73346510	      0.54556415	      7.28657697	      0.00000000	      5.00000014
     14.10000000	      3.53977419	      5.94287333	   -178.74003854	      0.41902899	      0.88854769	      0.99821417	     18.74960371	      5.93325407	    -16.86557667	     23.43657054	      0.40904532	   -344.13424012	      2.70609314	      0.00000000	     16.18525499	    -10.89023580	     -1.80283207	     72.36316438	      1.26297548	      2.05387335	    -18.93361122	      0.00000000	     -0.00500585	      0.73001448	     -0.19536372	     -0.00929636	      0.97091926	     -0.20757395	     -0.00822410	      1.77495722	     -0.20757395	     -0.00572118	      1.77495722	     -0.17094325	     -0.00464843	      1.48864553	     -0.15873302	     -0.00286034	      1.13079243	     -0.14652279	     -0.03575625	      8.25806984	     -1.08655437	      0.00000000	      0.00000000	      0.00000000	      0.00000000	      0.00000000	     -9.67177019	    -12.58810172	      9.71823274	     19.60747690	     50.22900436	      0.00000000	      5.00000014	     11.56647760	    -10.96697380	    138.15767393	      0.68227417	      7.87608770	      0.00000000	      5.00000014
     14.13333333	      3.57566956	      5.13476796	   -180.02621617	      0.38148004	      0.89359696	      0.99741807	     15.35228875	      5.09983604	    -18.34306112	     22.59140419	      0.39429439	   -341.74385507	      7.76475062	      0.00000000	     21.81737078	    -10.56610642	     -2.65657244	     74.70624420	      1.30386993	      5.09436260	    -18.57513215	      0.00000000	     -0.00520259	      0.65337030	      0.18521970	     -0.00966174	      0.86898250	      0.19679593	     -0.00854734	      1.58860454	      0.19679593	     -0.00594605	      1.58860454	      0.16206724	     -0.00483113	      1.33235271	      0.15049100	     -0.00297276	      1.01207059	      0.13891477	     -0.03716161	      7.39105548	      1.03013639	      0.00000000	      0.00000000	      0.00000000	      0.00000000	      0.00000000	     -7.40498649	    -12.82131752	      7.85164681	     20.47494067	     49.62537032	      0.00000000	      5.00000014	      9.53159305	    -11.30777216	    136.96996540	      0.89358435	      9.63024390	      0.00000000	      5.00000014
     14.16666667	      3.86467059	      4.55972145	   -181.29037059	      0.34575083	      0.89774683	      0.99716753	     12.27547368	      4.83176891	    -17.78677133	     21.00060633	      0.36652973	   -340.42497973	      9.56855353	      0.00000000	     27.39774975	    -10.43660358	     -3.48998479	     73.71884706	      1.28663660	      9.03910040	    -17.67842735	      0.00000000	     -0.00604587	      0.60881882	      0.51525453	     -0.01122778	      0.80972903	      0.54745794	     -0.00993276	      1.48028208	      0.54745794	     -0.00690982	      1.48028208	      0.45084772	     -0.00561419	      1.24150334	      0.41864431	     -0.00345461	      0.94306035	      0.38644090	     -0.04318503	      6.88708025	      2.86569113	      0.00000000	      0.00000000	      0.00000000	      0.00000000	      0.00000000	     -4.62488199	    -13.47235662	      7.68428812	     21.80164962	     49.57474266	      0.00000000	      5.00000014	      7.60888765	    -11.63926872	    137.12507693	      1.10002380	     10.00731361	      0.00000000	      5.00000014
     14.20000000	      4.37916676	      4.11236916	   -182.36459129	      0.31169915	      0.90035013	      0.99755293	      9.72826838	      4.49298223	    -17.43298907	     19.60230996	      0.34212485	   -339.27386014	     11.16902001	      0.00000000	     32.31113910	    -10.21108478	     -3.83379157	     69.13517991	      1.20663652	     11.89913114	    -16.38777527	      0.00000000	     -0.00679687	      0.58048347	      0.78045493	     -0.01262247	      0.77204301	      0.82923336	     -0.01116658	      1.41138750	      0.82923336	     -0.00776814	      1.41138750	      0.68289806	     -0.00631157	      1.18372189	      0.63411963	     -0.00388373	      0.89916889	      0.58534120	     -0.04854936	      6.56654508	      4.34065618	      0.00000000	      0.00000000	      0.00000000	      0.00000000	      0.00000000	     -1.68891777	    -14.27354140	      7.88330445	     23.85149189	     49.59495516	      0.00000000	      5.00000014	      5.84812239	    -11.94117802	    137.54983453	      1.24106202	     10.20791200	      0.00000000	      5.00000014
     14.23333333	      5.02265053	      4.02680970	   -183.41540735	      0.27870894	      0.90104993	      0.99811149	      7.60087815	      4.20761948	    -18.33269902	     18.75142526	      0.32727411	   -338.18202188	     14.22304498	      0.00000000	     35.89174656	    -10.44097956	     -4.14347366	     61.40467019	      1.07171367	     12.95472399	    -14.82108573	      0.00000000	     -0.00748648	      0.59016742	      1.01918202	     -0.01390314	      0.78492267	      1.08288090	     -0.01229954	      1.43493306	      1.08288090	     -0.00855630	      1.43493306	      0.89178427	     -0.00695194	      1.20346940	      0.82808539	     -0.00427777	      0.91416933	      0.76438652	     -0.05347517	      6.67609187	      5.66838466	      0.00000000	      0.00000000	      0.00000000	      0.00000000	      0.00000000	      1.65444299	    -15.83478823	     11.66242189	     25.83556488	     49.59702888	      0.00000000	      5.00000014	      4.37955377	    -12.02121572	    143.30123444	      1.00861268	     10.27821691	      0.00000000	      5.00000014
     14.26666667	      5.68448318	      4.01837457	   -184.48961479	      0.24583908	      0.89976607	      0.99826322	      5.66149125	      4.36306539	    -16.85812933	     18.06926567	      0.31536818	   -337.43161807	     13.89019627	      0.00000000	     37.76828745	    -10.87969988	     -5.04550746	     51.27011175	      0.89483226	     12.18318506	    -13.49751494	      0.00000000	     -0.00869073	      0.59559225	      1.25893483	     -0.01613955	      0.79213769	      1.33761825	     -0.01427800	      1.44812299	      1.33761825	     -0.00993264	      1.44812299	      1.10156797	     -0.00807021	      1.21453171	      1.02288455	     -0.00496588	      0.92257239	      0.94420112	     -0.06207701	      6.73745862	      7.00181782	      0.00000000	      0.00000000	      0.00000000	      0.00000000	      0.00000000	      4.47622055	    -16.67386749	     11.75388014	     28.19377381	     49.16910838	      0.00000000	      5.00000014	      2.93440046	    -12.19814151	    145.16578510	      0.89367891	      9.84380878	      0.00000000	      5.00000014
